<!--?xml version="1.0" standalone="no"?-->
              <svg id="sw-js-blob-svg" viewBox="0 0 100 100" xmlns="http://www.w3.org/2000/svg" version="1.1">
                    <defs> 
                        <linearGradient id="sw-gradient" x1="0" x2="1" y1="1" y2="0">
                            <stop id="stop1" stop-color="rgba(254, 255, 253, 0.64)" offset="0%"></stop>
                            <stop id="stop2" stop-color="rgba(254, 255, 253, 0.88)" offset="100%"></stop>
                        </linearGradient>
                    </defs>
                <path fill="url(#sw-gradient)" d="M20.4,-24.3C27.1,-18.6,33.8,-12.9,37.2,-4.9C40.6,3.1,40.8,13.4,36.8,22.2C32.8,31,24.7,38.4,15.6,41C6.4,43.6,-4,41.4,-12.5,37.1C-21.1,32.8,-27.9,26.4,-31.6,18.8C-35.3,11.2,-36,2.4,-35.4,-7.2C-34.8,-16.7,-33.1,-27,-27,-32.8C-20.9,-38.6,-10.4,-39.8,-1.8,-37.6C6.8,-35.5,13.6,-29.9,20.4,-24.3Z" width="100%" height="100%" transform="translate(50 50)" stroke-width="0" style="transition: all 0.3s ease 0s;" stroke="url(#sw-gradient)"></path>
              </svg>