<!--?xml version="1.0" standalone="no"?-->
              <svg id="sw-js-blob-svg" viewBox="0 0 100 100" xmlns="http://www.w3.org/2000/svg" version="1.1">
                    <defs> 
                        <linearGradient id="sw-gradient" x1="0" x2="1" y1="1" y2="0">
                            <stop id="stop1" stop-color="rgba(254, 255, 253, 0.64)" offset="0%"></stop>
                            <stop id="stop2" stop-color="rgba(254, 255, 253, 0.88)" offset="100%"></stop>
                        </linearGradient>
                    </defs>
                <path fill="url(#sw-gradient)" d="M21.6,-25.8C27.4,-20.8,31.1,-13.5,33.4,-5.2C35.7,3.1,36.5,12.3,32.4,18C28.3,23.7,19.3,25.9,10.6,29.2C1.8,32.4,-6.5,36.7,-12.7,34.6C-18.8,32.4,-22.7,23.9,-27.6,15.8C-32.4,7.6,-38.3,-0.1,-38.2,-7.8C-38.2,-15.6,-32.2,-23.4,-24.8,-28.1C-17.5,-32.8,-8.7,-34.4,-0.4,-33.9C7.9,-33.4,15.8,-30.8,21.6,-25.8Z" width="100%" height="100%" transform="translate(50 50)" stroke-width="0" style="transition: all 0.3s ease 0s;" stroke="url(#sw-gradient)"></path>
              </svg>