<!--?xml version="1.0" standalone="no"?-->
              <svg id="sw-js-blob-svg" viewBox="0 0 100 100" xmlns="http://www.w3.org/2000/svg" version="1.1">
                    <defs> 
                        <linearGradient id="sw-gradient" x1="0" x2="1" y1="1" y2="0">
                            <stop id="stop1" stop-color="rgba(254, 255, 253, 0.64)" offset="0%"></stop>
                            <stop id="stop2" stop-color="rgba(254, 255, 253, 0.88)" offset="100%"></stop>
                        </linearGradient>
                    </defs>
                <path fill="url(#sw-gradient)" d="M26.6,-32.1C32.4,-26.8,33.6,-16.5,34.6,-6.7C35.6,3.1,36.4,12.3,33.2,20.5C30.1,28.7,22.8,35.8,15,36.8C7.1,37.8,-1.5,32.7,-8.7,28.2C-16,23.7,-21.9,19.9,-27.8,14C-33.7,8.1,-39.5,0,-38.7,-7.1C-37.8,-14.3,-30.2,-20.6,-22.6,-25.5C-15,-30.4,-7.5,-34,1.4,-35.7C10.4,-37.4,20.8,-37.3,26.6,-32.1Z" width="100%" height="100%" transform="translate(50 50)" stroke-width="0" style="transition: all 0.3s ease 0s;" stroke="url(#sw-gradient)"></path>
              </svg>