<!--?xml version="1.0" standalone="no"?-->
              <svg id="sw-js-blob-svg" viewBox="0 0 100 100" xmlns="http://www.w3.org/2000/svg" version="1.1">
                    <defs> 
                        <linearGradient id="sw-gradient" x1="0" x2="1" y1="1" y2="0">
                            <stop id="stop1" stop-color="rgba(254, 255, 253, 0.64)" offset="0%"></stop>
                            <stop id="stop2" stop-color="rgba(254, 255, 253, 0.88)" offset="100%"></stop>
                        </linearGradient>
                    </defs>
                <path fill="url(#sw-gradient)" d="M24.9,-31.2C30.9,-24.6,33.5,-15.5,35.5,-6C37.6,3.6,39.1,13.5,35.5,21.2C31.9,29,23.2,34.5,14.7,35.6C6.1,36.6,-2.3,33.1,-11.8,30.5C-21.3,27.9,-31.8,26.2,-37.3,19.9C-42.9,13.7,-43.4,3,-40.8,-6.4C-38.1,-15.7,-32.4,-23.7,-25.1,-30.1C-17.8,-36.5,-8.9,-41.3,0.3,-41.6C9.4,-42,18.9,-37.8,24.9,-31.2Z" width="100%" height="100%" transform="translate(50 50)" stroke-width="0" style="transition: all 0.3s ease 0s;" stroke="url(#sw-gradient)"></path>
              </svg>